<svg width="32" height="32" viewBox="0 0 32 32" fill="none" xmlns="http://www.w3.org/2000/svg">
<path fill-rule="evenodd" clip-rule="evenodd" d="M2.036 15H7.016C7.076 13.246 7.292 11.564 7.64 10H3.348C2.60224 11.5701 2.15723 13.266 2.036 15V15ZM4.51 8H8.18C8.51333 6.93763 8.94173 5.90746 9.46 4.922C9.80581 4.26811 10.2052 3.64398 10.654 3.056C8.17595 4.08356 6.04393 5.79917 4.51 8V8ZM16 0C11.7565 0 7.68687 1.68571 4.68629 4.68629C1.68571 7.68687 0 11.7565 0 16C0 20.2435 1.68571 24.3131 4.68629 27.3137C7.68687 30.3143 11.7565 32 16 32C20.2435 32 24.3131 30.3143 27.3137 27.3137C30.3143 24.3131 32 20.2435 32 16C32 11.7565 30.3143 7.68687 27.3137 4.68629C24.3131 1.68571 20.2435 0 16 0V0ZM15 2.154C13.66 2.562 12.33 3.794 11.226 5.864C10.88 6.512 10.566 7.228 10.29 8H15V2.154ZM15 10H9.694C9.30063 11.6396 9.07414 13.3148 9.018 15H15V10ZM17 15V10H22.306C22.68 11.53 22.918 13.216 22.982 15H17ZM15 17H9.02C9.07549 18.6851 9.3013 20.3603 9.694 22H15V17ZM17 22V17H22.98C22.9246 18.6851 22.6988 20.3603 22.306 22H17ZM15 24H10.29C10.566 24.772 10.88 25.488 11.226 26.136C12.33 28.206 13.662 29.436 15 29.846V24ZM10.654 28.944C10.2051 28.356 9.80578 27.7319 9.46 27.078C8.94174 26.0925 8.51334 25.0624 8.18 24H4.51C6.04393 26.2008 8.17595 27.9164 10.654 28.944V28.944ZM3.348 22H7.64C7.27832 20.3561 7.06943 18.6823 7.016 17H2.036C2.16 18.78 2.618 20.466 3.348 22ZM21.346 28.944C23.8241 27.9164 25.9561 26.2008 27.49 24H23.822C23.4879 25.0624 23.0588 26.0925 22.54 27.078C22.1943 27.7319 21.7949 28.3561 21.346 28.944V28.944ZM21.71 24H17V29.846C18.34 29.438 19.67 28.206 20.774 26.136C21.1377 25.4478 21.4505 24.7339 21.71 24ZM24.36 22H28.652C29.382 20.466 29.84 18.78 29.964 17H24.984C24.9306 18.6823 24.7217 20.3561 24.36 22ZM24.984 15H29.964C29.8427 13.266 29.3977 11.5701 28.652 10H24.36C24.708 11.564 24.924 13.246 24.984 15ZM23.82 8C23.4866 6.93767 23.0582 5.90751 22.54 4.922C22.1942 4.26807 21.7949 3.64394 21.346 3.056C23.8241 4.08356 25.9561 5.79917 27.49 8H23.822H23.82ZM21.71 8H17V2.154C18.34 2.562 19.67 3.794 20.774 5.864C21.12 6.512 21.434 7.228 21.71 8Z" fill="#194A50"/>
</svg>
