<svg width="28" height="29" viewBox="0 0 28 29" fill="none" xmlns="http://www.w3.org/2000/svg">
<path d="M26.1879 21.375C25.1954 20.375 22.7916 18.9156 21.6254 18.3275C20.1066 17.5625 19.9816 17.5 18.7879 18.3869C17.9916 18.9788 17.4622 19.5075 16.5304 19.3088C15.5985 19.11 13.5735 17.9894 11.8004 16.2219C10.0272 14.4544 8.84161 12.3706 8.64223 11.4419C8.44286 10.5131 8.98036 9.99 9.56661 9.19188C10.3929 8.06688 10.3304 7.87938 9.62411 6.36063C9.07348 5.17938 7.57161 2.79813 6.56786 1.81063C5.49411 0.750001 5.49411 0.937501 4.80223 1.225C4.23896 1.46199 3.69858 1.75007 3.18786 2.08563C2.18786 2.75 1.63286 3.30188 1.24473 4.13125C0.856608 4.96063 0.682233 6.905 2.68661 10.5463C4.69098 14.1875 6.09723 16.0494 9.00786 18.9519C11.9185 21.8544 14.1566 23.415 17.4285 25.25C21.476 27.5169 23.0285 27.075 23.8604 26.6875C24.6922 26.3 25.2466 25.75 25.9122 24.75C26.2487 24.2401 26.5374 23.7004 26.7747 23.1375C27.0629 22.4481 27.2504 22.4481 26.1879 21.375Z" stroke="white" stroke-width="2" stroke-miterlimit="10"/>
</svg>
