<svg id="svg" version="1.1" xmlns="http://www.w3.org/2000/svg" xmlns:xlink="http://www.w3.org/1999/xlink" width="400" height="470.48458149779736" viewBox="0, 0, 400,470.48458149779736"><g id="svgg"><path id="path0" d="M183.159 129.713 C 182.587 130.201,181.777 130.825,181.359 131.101 C 178.108 133.246,175.417 135.059,173.200 136.599 C 166.533 141.228,164.983 142.284,163.164 143.432 C 162.091 144.110,160.895 144.950,160.506 145.298 C 160.118 145.647,157.820 147.266,155.400 148.897 C 152.980 150.528,150.190 152.436,149.200 153.137 C 148.210 153.837,145.870 155.436,144.000 156.689 C 142.130 157.942,139.045 160.100,137.144 161.484 C 135.243 162.868,133.521 164.000,133.318 164.000 C 133.116 164.000,132.466 164.505,131.875 165.122 L 130.800 166.244 130.800 220.045 C 130.800 266.732,130.722 273.950,130.213 274.624 C 129.714 275.282,129.624 278.508,129.613 295.900 L 129.600 316.400 119.000 316.400 L 108.400 316.400 108.400 337.800 L 108.400 359.200 109.353 359.200 C 109.970 359.200,110.381 359.482,110.516 360.000 C 110.760 360.934,103.360 360.829,172.200 360.878 L 218.200 360.910 218.400 339.475 C 218.526 325.986,218.748 317.893,219.000 317.645 C 219.233 317.415,223.363 317.198,228.881 317.125 C 235.145 317.042,238.512 316.849,238.805 316.555 C 239.125 316.235,239.194 309.840,239.052 293.755 C 238.943 281.460,238.797 247.730,238.727 218.800 C 238.590 162.123,238.660 164.000,236.695 164.000 C 236.468 164.000,235.364 163.367,234.241 162.593 C 230.078 159.723,228.150 158.375,226.200 156.970 C 225.100 156.178,223.660 155.188,223.000 154.770 C 221.757 153.984,219.254 152.249,215.800 149.782 C 214.700 148.997,212.900 147.786,211.800 147.092 C 210.700 146.397,209.710 145.717,209.600 145.579 C 209.490 145.442,208.410 144.673,207.200 143.870 C 205.990 143.067,204.730 142.173,204.400 141.883 C 204.070 141.593,202.810 140.741,201.600 139.990 C 200.390 139.239,198.382 137.899,197.137 137.012 C 195.892 136.126,194.472 135.130,193.981 134.800 C 193.490 134.470,192.593 133.795,191.987 133.300 C 191.380 132.805,190.702 132.400,190.479 132.400 C 190.256 132.400,189.079 131.590,187.864 130.600 C 185.379 128.576,184.653 128.439,183.159 129.713 M24.400 164.000 C 24.040 164.672,23.562 164.800,21.413 164.800 C 19.230 164.800,18.818 164.914,18.607 165.577 C 18.433 166.127,17.928 166.390,16.880 166.477 C 15.695 166.575,15.374 166.780,15.272 167.500 C 15.162 168.279,14.905 168.400,13.372 168.400 C 11.867 168.400,11.600 168.520,11.600 169.200 C 11.600 169.787,11.333 170.000,10.600 170.000 C 9.988 170.000,9.600 170.228,9.600 170.586 C 9.600 170.908,9.240 171.365,8.800 171.600 C 8.360 171.835,8.000 172.382,8.000 172.814 C 8.000 173.345,7.728 173.600,7.163 173.600 C 6.675 173.600,6.242 173.919,6.126 174.363 C 6.016 174.783,5.583 175.216,5.163 175.326 C 4.737 175.437,4.400 175.874,4.400 176.316 C 4.400 176.770,4.060 177.196,3.600 177.316 C 2.964 177.482,2.800 177.862,2.800 179.163 C 2.800 180.363,2.637 180.800,2.190 180.800 C 1.508 180.800,0.800 182.342,0.800 183.826 C 0.800 184.362,0.620 184.800,0.400 184.800 C 0.134 184.800,0.000 218.267,0.000 284.400 C 0.000 350.533,0.134 384.000,0.400 384.000 C 0.620 384.000,0.800 384.875,0.800 385.944 C 0.800 387.551,0.974 388.018,1.800 388.639 C 2.509 389.171,2.800 389.770,2.800 390.695 C 2.800 391.733,2.963 392.000,3.600 392.000 C 4.097 392.000,4.400 392.267,4.400 392.704 C 4.400 393.091,4.754 393.629,5.187 393.899 C 5.620 394.170,6.126 394.978,6.311 395.696 C 6.558 396.654,6.906 397.037,7.624 397.138 C 8.161 397.214,9.362 398.069,10.293 399.038 C 11.225 400.007,12.239 400.800,12.547 400.800 C 12.855 400.800,13.201 401.160,13.316 401.600 C 13.482 402.236,13.862 402.400,15.163 402.400 C 16.502 402.400,16.800 402.538,16.800 403.157 C 16.800 404.128,17.551 404.400,20.233 404.400 C 21.819 404.400,22.400 404.549,22.400 404.957 C 22.400 405.891,23.367 406.000,31.633 406.000 L 39.600 406.000 39.600 438.200 L 39.600 470.400 43.229 470.400 C 45.567 470.400,47.055 470.222,47.415 469.900 C 47.721 469.625,48.248 469.168,48.586 468.884 C 49.085 468.465,49.203 467.271,49.214 462.484 C 49.223 458.914,49.453 455.577,49.800 454.000 C 50.258 451.920,50.375 446.867,50.386 428.731 L 50.400 406.062 57.959 405.931 C 64.479 405.818,65.624 405.704,66.290 405.100 C 66.715 404.715,67.589 404.398,68.231 404.395 C 70.182 404.385,71.200 403.960,71.200 403.153 C 71.200 402.538,71.500 402.400,72.837 402.400 C 74.138 402.400,74.518 402.236,74.684 401.600 C 74.804 401.140,75.230 400.800,75.684 400.800 C 76.125 400.800,76.563 400.463,76.674 400.038 C 76.802 399.549,77.371 399.182,78.258 399.016 C 79.019 398.873,79.754 398.451,79.891 398.078 C 80.028 397.705,80.559 397.004,81.070 396.519 C 81.582 396.035,82.000 395.180,82.000 394.619 C 82.000 393.867,82.209 393.600,82.800 393.600 C 83.317 393.600,83.600 393.333,83.600 392.847 C 83.600 392.432,83.955 392.000,84.389 391.887 C 84.945 391.742,85.253 391.208,85.434 390.075 C 85.611 388.972,85.927 388.408,86.446 388.272 C 87.021 388.122,87.200 387.707,87.200 386.526 C 87.200 385.473,87.456 384.759,88.000 384.293 C 88.794 383.613,88.800 383.113,88.800 317.066 L 88.800 250.524 87.922 248.162 C 87.059 245.838,87.040 245.335,86.778 217.000 C 86.519 188.997,86.419 186.684,85.386 185.000 C 85.116 184.560,84.776 183.687,84.630 183.060 C 84.484 182.433,84.041 181.443,83.645 180.860 C 83.249 180.277,82.402 179.000,81.763 178.023 C 78.650 173.265,71.758 168.190,67.267 167.349 C 66.460 167.198,65.170 166.799,64.400 166.461 C 63.330 165.993,60.781 165.795,53.600 165.624 C 43.888 165.393,43.200 165.284,43.200 163.976 C 43.200 162.748,25.058 162.771,24.400 164.000 M167.850 187.988 C 170.641 189.383,171.859 190.617,173.326 193.537 L 174.400 195.674 174.400 212.757 C 174.400 225.510,174.278 229.962,173.920 230.320 C 173.214 231.026,153.225 230.999,152.256 230.290 C 151.609 229.817,151.568 228.577,151.683 212.990 L 151.808 196.200 152.861 194.000 C 153.922 191.782,156.322 189.032,157.800 188.340 C 158.240 188.134,159.050 187.706,159.600 187.389 C 161.379 186.362,165.144 186.636,167.850 187.988 M211.468 187.771 C 214.581 189.220,216.581 191.509,217.594 194.781 C 218.843 198.816,218.696 229.703,217.424 230.633 C 216.080 231.614,196.752 231.451,195.846 230.451 C 195.226 229.766,195.178 228.200,195.284 212.351 L 195.400 195.000 196.458 192.800 C 199.059 187.391,205.801 185.132,211.468 187.771 M173.610 252.810 C 174.469 253.669,174.716 294.617,173.867 295.467 C 173.215 296.120,153.893 296.105,153.000 295.451 C 151.528 294.373,151.570 254.087,153.044 252.613 C 154.117 251.540,172.517 251.717,173.610 252.810 M217.226 252.414 C 218.448 253.068,218.436 294.939,217.214 295.593 C 216.706 295.864,212.770 295.976,206.114 295.907 L 195.800 295.800 195.696 274.400 C 195.639 262.630,195.678 252.775,195.783 252.500 C 196.030 251.856,216.034 251.776,217.226 252.414 M216.666 366.288 C 216.301 367.120,215.107 369.240,214.012 371.000 C 212.918 372.760,211.846 374.595,211.630 375.078 C 211.413 375.561,210.606 376.853,209.836 377.949 C 209.065 379.045,208.156 380.540,207.815 381.271 C 207.473 382.002,206.758 383.320,206.224 384.200 C 205.690 385.080,204.874 386.430,204.412 387.200 C 203.949 387.970,203.135 389.320,202.604 390.200 C 202.073 391.080,201.512 392.070,201.357 392.400 C 201.202 392.730,200.368 394.110,199.503 395.467 C 197.767 398.192,196.755 399.954,195.830 401.867 C 194.292 405.046,197.934 404.800,152.315 404.800 C 117.270 404.800,111.647 404.880,110.976 405.387 C 110.549 405.710,109.795 405.980,109.300 405.987 L 108.400 406.000 108.400 425.600 C 108.400 438.589,108.537 445.200,108.806 445.200 C 110.435 445.200,110.797 447.495,110.799 457.840 C 110.799 464.095,110.966 468.356,111.239 469.140 L 111.678 470.400 131.396 470.400 C 149.008 470.400,151.140 470.332,151.357 469.767 C 151.491 469.419,151.600 459.721,151.600 448.216 C 151.600 430.974,151.696 427.218,152.149 426.842 C 152.537 426.520,155.852 426.418,163.449 426.493 L 174.200 426.600 174.400 447.800 C 174.510 459.460,174.754 469.315,174.943 469.700 C 175.263 470.354,176.699 470.400,196.625 470.400 L 217.964 470.400 218.195 469.100 C 218.648 466.561,218.229 365.076,217.765 364.922 C 217.526 364.842,217.032 365.457,216.666 366.288 " stroke="none" fill="#fafbfb" fill-rule="evenodd"></path><path id="path1" d="M180.800 0.393 C 180.800 0.636,177.110 0.827,171.100 0.893 L 161.400 1.000 161.272 1.900 C 161.147 2.780,161.031 2.800,155.972 2.800 C 151.067 2.800,150.800 2.841,150.800 3.600 C 150.800 4.341,150.533 4.400,147.200 4.400 C 143.867 4.400,143.600 4.459,143.600 5.200 C 143.600 5.959,142.648 6.254,140.911 6.032 C 140.643 5.998,140.308 6.427,140.168 6.985 C 139.921 7.971,139.817 8.000,136.557 8.000 C 133.467 8.000,133.200 8.064,133.200 8.800 C 133.200 9.481,132.933 9.600,131.400 9.600 C 129.747 9.600,129.600 9.681,129.600 10.600 C 129.600 11.519,129.453 11.600,127.800 11.600 C 126.267 11.600,126.000 11.719,126.000 12.400 C 126.000 13.118,125.733 13.200,123.400 13.200 C 121.116 13.200,120.800 13.292,120.800 13.957 C 120.800 14.430,120.426 14.807,119.800 14.964 C 119.154 15.126,118.800 15.496,118.800 16.008 C 118.800 16.665,118.528 16.800,117.200 16.800 C 115.867 16.800,115.600 16.933,115.600 17.600 C 115.600 18.281,115.333 18.400,113.800 18.400 C 112.147 18.400,112.000 18.481,112.000 19.400 C 112.000 20.319,111.853 20.400,110.200 20.400 C 108.667 20.400,108.400 20.519,108.400 21.200 C 108.400 21.733,108.133 22.000,107.600 22.000 C 107.083 22.000,106.800 22.267,106.800 22.755 C 106.800 23.342,106.402 23.569,105.000 23.779 C 103.578 23.992,103.200 24.212,103.200 24.825 C 103.200 25.385,102.923 25.600,102.200 25.600 C 101.467 25.600,101.200 25.813,101.200 26.400 C 101.200 27.067,100.933 27.200,99.600 27.200 C 98.160 27.200,98.000 27.300,98.000 28.200 C 98.000 29.000,97.800 29.200,97.000 29.200 C 96.267 29.200,96.000 29.413,96.000 30.000 C 96.000 30.533,95.733 30.800,95.200 30.800 C 94.613 30.800,94.400 31.067,94.400 31.800 C 94.400 32.548,94.189 32.800,93.563 32.800 C 93.062 32.800,92.641 33.121,92.516 33.600 C 92.352 34.227,91.970 34.400,90.753 34.400 C 89.485 34.400,89.200 34.542,89.200 35.172 C 89.200 35.668,88.878 35.990,88.300 36.072 C 87.552 36.178,87.379 36.487,87.277 37.900 C 87.163 39.475,87.070 39.600,86.010 39.600 C 84.345 39.600,83.600 39.984,83.600 40.843 C 83.600 41.333,83.318 41.600,82.800 41.600 C 82.267 41.600,82.000 41.867,82.000 42.400 C 82.000 42.933,81.733 43.200,81.200 43.200 C 80.750 43.200,80.400 43.467,80.400 43.810 C 80.400 44.145,79.950 44.591,79.400 44.800 C 78.562 45.119,78.400 45.441,78.400 46.790 C 78.400 48.133,78.267 48.400,77.600 48.400 C 77.013 48.400,76.800 48.667,76.800 49.400 C 76.800 50.200,76.600 50.400,75.800 50.400 C 75.067 50.400,74.800 50.613,74.800 51.200 C 74.800 51.733,74.533 52.000,74.000 52.000 C 73.483 52.000,73.200 52.267,73.200 52.753 C 73.200 53.179,72.839 53.601,72.370 53.724 C 71.914 53.843,71.443 54.314,71.324 54.770 C 71.201 55.239,70.779 55.600,70.353 55.600 C 69.867 55.600,69.600 55.883,69.600 56.400 C 69.600 56.933,69.333 57.200,68.800 57.200 C 68.119 57.200,68.000 57.467,68.000 59.000 C 68.000 60.560,67.888 60.800,67.163 60.800 C 66.675 60.800,66.242 61.119,66.126 61.563 C 66.016 61.983,65.583 62.416,65.163 62.526 C 64.572 62.680,64.400 63.088,64.400 64.335 C 64.400 65.699,64.263 65.964,63.500 66.072 C 62.756 66.178,62.579 66.488,62.479 67.859 C 62.388 69.107,62.165 69.568,61.579 69.721 C 61.151 69.833,60.800 70.191,60.800 70.516 C 60.800 70.841,60.440 71.201,60.000 71.316 C 59.367 71.481,59.200 71.862,59.200 73.135 C 59.200 74.499,59.063 74.764,58.300 74.872 C 57.552 74.978,57.379 75.287,57.277 76.700 C 57.178 78.074,57.005 78.400,56.377 78.400 C 55.725 78.400,55.600 78.684,55.600 80.172 C 55.600 81.705,55.479 81.962,54.700 82.072 C 53.952 82.178,53.779 82.487,53.677 83.900 C 53.578 85.274,53.405 85.600,52.777 85.600 C 52.087 85.600,52.000 85.892,52.000 88.200 C 52.000 90.533,51.918 90.800,51.200 90.800 C 50.519 90.800,50.400 91.067,50.400 92.600 C 50.400 94.253,50.319 94.400,49.400 94.400 C 48.436 94.400,48.400 94.493,48.400 97.000 C 48.400 99.333,48.318 99.600,47.600 99.600 C 46.860 99.600,46.800 99.867,46.800 103.172 C 46.800 106.572,46.757 106.751,45.900 106.872 C 45.061 106.991,44.992 107.223,44.884 110.300 C 44.779 113.271,44.690 113.600,43.984 113.600 C 43.244 113.600,43.200 113.904,43.200 119.000 C 43.200 124.133,43.160 124.400,42.400 124.400 C 41.612 124.400,41.600 124.667,41.600 142.800 C 41.600 160.933,41.612 161.200,42.400 161.200 C 43.080 161.200,43.200 161.467,43.200 162.976 C 43.200 165.413,43.039 165.372,53.600 165.624 C 60.781 165.795,63.330 165.993,64.400 166.461 C 65.170 166.799,66.460 167.198,67.267 167.349 C 71.758 168.190,78.650 173.265,81.763 178.023 C 82.402 179.000,83.249 180.277,83.645 180.860 C 84.041 181.443,84.484 182.433,84.630 183.060 C 84.776 183.687,85.141 184.594,85.440 185.075 C 86.537 186.835,86.793 193.261,86.797 219.120 C 86.799 240.210,86.904 245.448,87.339 246.320 C 87.635 246.914,88.218 248.615,88.634 250.100 L 89.390 252.800 90.895 252.800 C 92.133 252.800,92.400 252.942,92.400 253.600 C 92.400 254.187,92.667 254.400,93.400 254.400 C 94.200 254.400,94.400 254.600,94.400 255.400 C 94.400 256.133,94.613 256.400,95.200 256.400 C 95.733 256.400,96.000 256.667,96.000 257.200 C 96.000 257.881,96.267 258.000,97.800 258.000 C 99.453 258.000,99.600 258.081,99.600 259.000 C 99.600 259.550,99.735 259.979,99.900 259.953 C 100.713 259.824,101.125 260.071,101.316 260.800 C 101.441 261.279,101.862 261.600,102.363 261.600 C 102.933 261.600,103.200 261.855,103.200 262.400 C 103.200 263.081,103.467 263.200,105.000 263.200 C 106.653 263.200,106.800 263.281,106.800 264.200 C 106.800 264.933,107.013 265.200,107.600 265.200 C 108.133 265.200,108.400 265.467,108.400 266.000 C 108.400 266.680,108.667 266.800,110.172 266.800 C 111.705 266.800,111.962 266.921,112.072 267.700 C 112.178 268.448,112.487 268.621,113.900 268.723 C 115.274 268.822,115.600 268.995,115.600 269.623 C 115.600 270.263,115.882 270.400,117.200 270.400 C 118.533 270.400,118.800 270.533,118.800 271.200 C 118.800 271.787,119.067 272.000,119.800 272.000 C 120.600 272.000,120.800 272.200,120.800 273.000 C 120.800 273.964,120.893 274.000,123.400 274.000 C 125.733 274.000,126.000 274.082,126.000 274.800 C 126.000 275.480,126.267 275.600,127.777 275.600 C 131.069 275.600,130.800 280.555,130.800 219.986 L 130.800 166.150 131.922 165.075 C 132.539 164.484,133.189 164.000,133.365 164.000 C 133.542 164.000,135.243 162.868,137.144 161.484 C 139.045 160.100,142.130 157.942,144.000 156.689 C 145.870 155.436,148.210 153.837,149.200 153.137 C 150.190 152.436,152.980 150.528,155.400 148.897 C 157.820 147.266,160.118 145.647,160.506 145.298 C 160.895 144.950,162.091 144.110,163.164 143.432 C 164.983 142.284,166.533 141.228,173.200 136.599 C 175.421 135.057,177.310 133.783,181.356 131.101 C 181.771 130.825,182.607 130.195,183.213 129.700 C 184.758 128.439,185.351 128.553,187.864 130.600 C 189.079 131.590,190.256 132.400,190.479 132.400 C 190.702 132.400,191.380 132.805,191.987 133.300 C 192.593 133.795,193.490 134.470,193.981 134.800 C 194.472 135.130,195.892 136.126,197.137 137.012 C 198.382 137.899,200.390 139.239,201.600 139.990 C 202.810 140.741,204.070 141.593,204.400 141.883 C 204.730 142.173,205.990 143.067,207.200 143.870 C 208.410 144.673,209.490 145.442,209.600 145.579 C 209.710 145.717,210.700 146.397,211.800 147.092 C 212.900 147.786,214.700 148.997,215.800 149.782 C 219.254 152.249,221.757 153.984,223.000 154.770 C 223.660 155.188,225.100 156.178,226.200 156.970 C 228.150 158.375,230.078 159.723,234.241 162.593 C 235.364 163.367,236.468 164.000,236.695 164.000 C 238.660 164.000,238.590 162.123,238.727 218.800 C 238.797 247.730,238.943 281.460,239.052 293.755 C 239.194 309.840,239.125 316.235,238.805 316.555 C 238.512 316.849,235.145 317.042,228.881 317.125 C 223.363 317.198,219.233 317.415,219.000 317.645 C 218.748 317.893,218.526 325.986,218.400 339.475 L 218.200 360.910 172.200 360.878 C 103.360 360.829,110.760 360.934,110.516 360.000 C 110.116 358.472,108.400 358.959,108.400 360.600 C 108.400 361.733,108.248 362.000,107.600 362.000 C 107.013 362.000,106.800 362.267,106.800 363.000 C 106.800 363.800,106.600 364.000,105.800 364.000 C 104.905 364.000,104.800 364.163,104.800 365.553 C 104.800 366.770,104.627 367.152,104.000 367.316 C 103.367 367.481,103.200 367.862,103.200 369.135 C 103.200 370.499,103.063 370.764,102.300 370.872 C 101.722 370.954,101.354 371.322,101.272 371.900 C 101.190 372.478,100.868 372.800,100.372 372.800 C 99.742 372.800,99.600 373.085,99.600 374.353 C 99.600 375.570,99.427 375.952,98.800 376.116 C 98.164 376.282,98.000 376.662,98.000 377.963 C 98.000 379.442,97.904 379.600,97.000 379.600 C 96.200 379.600,96.000 379.800,96.000 380.600 C 96.000 381.333,95.787 381.600,95.200 381.600 C 94.537 381.600,94.400 381.867,94.400 383.157 C 94.400 384.483,94.252 384.750,93.400 384.964 C 92.543 385.179,92.400 385.443,92.400 386.808 C 92.400 388.133,92.266 388.400,91.600 388.400 C 91.013 388.400,90.800 388.667,90.800 389.400 C 90.800 390.111,90.583 390.400,90.051 390.400 C 89.489 390.400,89.240 390.792,89.051 391.973 C 88.877 393.060,88.552 393.625,88.000 393.800 C 87.379 393.997,87.200 394.406,87.200 395.627 C 87.200 396.933,87.064 397.200,86.400 397.200 C 85.813 397.200,85.600 397.467,85.600 398.200 C 85.600 399.000,85.400 399.200,84.600 399.200 C 83.612 399.200,83.600 399.240,83.600 402.600 L 83.600 406.000 96.900 405.987 C 107.961 405.977,110.331 405.876,110.976 405.387 C 111.647 404.880,117.270 404.800,152.315 404.800 C 197.934 404.800,194.292 405.046,195.830 401.867 C 196.755 399.954,197.767 398.192,199.503 395.467 C 200.368 394.110,201.202 392.730,201.357 392.400 C 201.512 392.070,202.073 391.080,202.604 390.200 C 203.135 389.320,203.949 387.970,204.412 387.200 C 204.874 386.430,205.690 385.080,206.224 384.200 C 206.758 383.320,207.473 382.002,207.815 381.271 C 208.156 380.540,209.065 379.045,209.836 377.949 C 210.606 376.853,211.413 375.561,211.630 375.078 C 211.846 374.595,212.918 372.760,214.012 371.000 C 215.107 369.240,216.301 367.120,216.666 366.288 C 218.180 362.844,218.200 363.517,218.200 417.733 L 218.200 470.400 309.100 470.400 L 400.000 470.400 400.000 464.600 C 400.000 461.000,399.848 458.800,399.600 458.800 C 399.380 458.800,399.200 458.080,399.200 457.200 C 399.200 455.760,399.100 455.600,398.200 455.600 C 397.400 455.600,397.200 455.400,397.200 454.600 C 397.200 453.887,396.984 453.600,396.447 453.600 C 396.030 453.600,395.600 453.243,395.484 452.800 C 395.357 452.313,394.938 452.000,394.414 452.000 C 393.940 452.000,393.654 451.836,393.778 451.636 C 394.322 450.755,393.481 450.000,391.957 450.000 C 390.667 450.000,390.400 449.863,390.400 449.200 C 390.400 448.613,390.133 448.400,389.400 448.400 C 388.667 448.400,388.400 448.187,388.400 447.600 C 388.400 446.863,388.133 446.800,385.028 446.800 C 381.835 446.800,381.649 446.752,381.528 445.900 L 381.400 445.000 366.500 444.895 L 351.600 444.790 351.600 380.595 L 351.600 316.400 347.200 316.400 L 342.800 316.400 342.800 239.843 C 342.800 170.402,342.741 163.263,342.167 163.043 C 341.819 162.909,341.009 162.800,340.367 162.800 C 339.467 162.800,339.200 162.617,339.200 162.000 C 339.200 161.423,338.933 161.200,338.244 161.200 C 337.580 161.200,337.306 160.987,337.344 160.500 C 337.379 160.062,337.072 159.754,336.525 159.676 C 335.979 159.598,335.602 159.221,335.525 158.675 C 335.422 157.956,335.098 157.778,333.700 157.677 C 332.345 157.579,332.000 157.401,332.000 156.800 C 332.000 156.202,331.656 156.021,330.334 155.923 L 328.668 155.800 328.634 144.600 L 328.600 133.400 327.700 133.272 L 326.800 133.144 326.800 124.372 C 326.800 115.867,326.776 115.600,326.000 115.600 C 325.259 115.600,325.200 115.333,325.200 112.000 C 325.200 108.427,325.193 108.400,324.200 108.400 C 323.207 108.400,323.200 108.373,323.200 104.800 C 323.200 101.467,323.141 101.200,322.400 101.200 C 321.682 101.200,321.600 100.933,321.600 98.600 C 321.600 96.267,321.518 96.000,320.800 96.000 C 320.158 96.000,320.000 95.733,320.000 94.650 C 320.000 92.167,319.556 90.800,318.750 90.800 C 318.128 90.800,318.000 90.493,318.000 89.000 C 318.000 87.481,317.878 87.200,317.219 87.200 C 316.541 87.200,316.423 86.872,316.319 84.700 C 316.212 82.455,316.108 82.187,315.300 82.072 C 314.649 81.980,314.400 81.676,314.400 80.972 C 314.400 80.267,314.181 80.000,313.600 80.000 C 312.933 80.000,312.800 79.733,312.800 78.400 C 312.800 77.067,312.667 76.800,312.000 76.800 C 311.395 76.800,311.199 76.532,311.196 75.700 C 311.186 73.269,310.679 71.493,309.939 71.300 C 309.533 71.194,309.200 70.768,309.200 70.353 C 309.200 69.874,308.917 69.600,308.423 69.600 C 307.795 69.600,307.622 69.274,307.523 67.900 C 307.421 66.487,307.248 66.178,306.500 66.072 C 305.922 65.990,305.600 65.668,305.600 65.172 C 305.600 64.667,305.324 64.400,304.800 64.400 C 304.119 64.400,304.000 64.133,304.000 62.600 C 304.000 60.947,303.919 60.800,303.000 60.800 C 302.267 60.800,302.000 60.587,302.000 60.000 C 302.000 59.467,301.733 59.200,301.200 59.200 C 300.519 59.200,300.400 58.933,300.400 57.400 C 300.400 55.888,300.276 55.600,299.628 55.600 C 299.132 55.600,298.810 55.278,298.728 54.700 C 298.644 54.109,298.325 53.800,297.800 53.800 C 297.275 53.800,296.956 53.491,296.872 52.900 C 296.790 52.322,296.468 52.000,295.972 52.000 C 295.467 52.000,295.200 51.724,295.200 51.200 C 295.200 50.613,294.933 50.400,294.200 50.400 C 293.400 50.400,293.200 50.200,293.200 49.400 C 293.200 48.667,292.987 48.400,292.400 48.400 C 291.730 48.400,291.600 48.133,291.600 46.763 C 291.600 45.488,291.431 45.081,290.837 44.926 C 290.417 44.816,289.984 44.383,289.874 43.963 C 289.758 43.519,289.325 43.200,288.837 43.200 C 288.267 43.200,288.000 42.945,288.000 42.400 C 288.000 41.876,287.733 41.600,287.228 41.600 C 286.732 41.600,286.410 41.278,286.328 40.700 C 286.222 39.952,285.913 39.779,284.500 39.677 C 283.126 39.578,282.800 39.405,282.800 38.777 C 282.800 38.274,282.526 38.000,282.023 38.000 C 281.395 38.000,281.222 37.674,281.123 36.300 C 281.001 34.608,280.992 34.599,279.300 34.477 C 277.926 34.378,277.600 34.205,277.600 33.577 C 277.600 33.015,277.323 32.800,276.600 32.800 C 275.800 32.800,275.600 32.600,275.600 31.800 C 275.600 31.067,275.387 30.800,274.800 30.800 C 274.267 30.800,274.000 30.533,274.000 30.000 C 274.000 29.319,273.733 29.200,272.200 29.200 C 270.547 29.200,270.400 29.119,270.400 28.200 C 270.400 27.467,270.187 27.200,269.600 27.200 C 269.067 27.200,268.800 26.933,268.800 26.400 C 268.800 25.813,268.533 25.600,267.800 25.600 C 267.087 25.600,266.800 25.384,266.800 24.845 C 266.800 24.261,266.405 24.032,265.047 23.828 C 263.732 23.631,263.308 23.395,263.347 22.883 C 263.388 22.355,263.014 22.172,261.700 22.077 C 260.326 21.978,260.000 21.805,260.000 21.177 C 260.000 20.615,259.723 20.400,259.000 20.400 C 258.200 20.400,258.000 20.200,258.000 19.400 C 258.000 18.503,257.838 18.400,256.427 18.400 C 255.205 18.400,254.797 18.221,254.600 17.600 C 254.403 16.979,253.995 16.800,252.773 16.800 C 251.472 16.800,251.200 16.663,251.200 16.008 C 251.200 15.496,250.846 15.126,250.200 14.964 C 249.574 14.807,249.200 14.430,249.200 13.957 C 249.200 13.292,248.884 13.200,246.600 13.200 C 244.267 13.200,244.000 13.118,244.000 12.400 C 244.000 11.719,243.733 11.600,242.200 11.600 C 240.547 11.600,240.400 11.519,240.400 10.600 C 240.400 9.681,240.253 9.600,238.600 9.600 C 237.067 9.600,236.800 9.481,236.800 8.800 C 236.800 8.063,236.533 8.000,233.428 8.000 C 230.235 8.000,230.049 7.952,229.928 7.100 C 229.813 6.294,229.544 6.188,227.342 6.082 C 225.295 5.984,224.850 5.833,224.679 5.182 C 224.503 4.506,224.118 4.400,221.837 4.400 C 219.467 4.400,219.200 4.319,219.200 3.600 C 219.200 2.836,218.933 2.800,213.243 2.800 L 207.287 2.800 207.036 1.800 L 206.785 0.800 199.792 0.800 C 195.397 0.800,192.800 0.651,192.800 0.400 C 192.800 0.151,190.533 0.000,186.800 0.000 C 183.139 0.000,180.800 0.153,180.800 0.393 M159.600 187.389 C 159.050 187.706,158.240 188.134,157.800 188.340 C 156.322 189.032,153.922 191.782,152.861 194.000 L 151.808 196.200 151.683 212.990 C 151.568 228.577,151.609 229.817,152.256 230.290 C 153.225 230.999,173.214 231.026,173.920 230.320 C 174.278 229.962,174.400 225.510,174.400 212.757 L 174.400 195.674 173.326 193.537 C 170.635 188.181,163.650 185.052,159.600 187.389 M201.600 187.678 C 199.127 188.791,197.704 190.210,196.458 192.800 L 195.400 195.000 195.284 212.351 C 195.178 228.200,195.226 229.766,195.846 230.451 C 196.752 231.451,216.080 231.614,217.424 230.633 C 218.696 229.703,218.843 198.816,217.594 194.781 C 215.570 188.242,207.906 184.838,201.600 187.678 M153.044 252.613 C 151.570 254.087,151.528 294.373,153.000 295.451 C 153.893 296.105,173.215 296.120,173.867 295.467 C 174.716 294.617,174.469 253.669,173.610 252.810 C 172.517 251.717,154.117 251.540,153.044 252.613 M195.783 252.500 C 195.678 252.775,195.639 262.630,195.696 274.400 L 195.800 295.800 206.114 295.907 C 212.770 295.976,216.706 295.864,217.214 295.593 C 218.436 294.939,218.448 253.068,217.226 252.414 C 216.034 251.776,196.030 251.856,195.783 252.500 M152.064 426.922 C 151.754 427.296,151.587 433.935,151.510 448.929 L 151.400 470.400 163.343 470.400 C 174.581 470.400,175.265 470.359,174.943 469.700 C 174.754 469.315,174.510 459.460,174.400 447.800 L 174.200 426.600 163.354 426.494 C 154.687 426.409,152.419 426.495,152.064 426.922 M62.795 445.813 C 62.449 446.723,62.217 446.800,59.810 446.800 C 57.492 446.800,57.200 446.887,57.200 447.577 C 57.200 448.205,56.874 448.378,55.500 448.477 C 54.168 448.573,53.812 448.752,53.856 449.300 C 53.892 449.764,53.623 450.002,53.056 450.005 C 50.081 450.024,49.199 452.921,49.200 462.671 C 49.200 468.342,48.904 469.600,47.571 469.600 C 47.367 469.600,47.200 469.780,47.200 470.000 C 47.200 470.263,58.214 470.400,79.443 470.400 C 110.011 470.400,111.668 470.364,111.350 469.700 C 111.165 469.315,110.921 464.140,110.807 458.200 C 110.592 446.989,110.453 446.085,108.806 445.203 C 108.294 444.929,100.378 444.794,85.600 444.807 L 63.170 444.826 62.795 445.813 " stroke="none" fill="#144c54" fill-rule="evenodd"></path></g></svg>