<svg width="193" height="40" viewBox="0 0 193 40" fill="none" xmlns="http://www.w3.org/2000/svg">
<path d="M20.503 32.195C20.503 30.935 20.713 28.865 21.133 25.985H10.963C10.573 28.235 10.378 29.78 10.378 30.62C10.378 33.53 10.828 35.705 11.728 37.145C9.92801 38.495 8.05301 39.17 6.10301 39.17C4.15301 39.17 2.75801 38.615 1.91801 37.505C1.07801 36.365 0.658008 34.685 0.658008 32.465C0.658008 30.215 1.60301 23.87 3.49301 13.43L1.10801 8.615C4.49801 6.425 7.58801 5.33 10.378 5.33C12.688 5.33 13.843 6.74 13.843 9.56C13.843 10.4 13.213 14.09 11.953 20.63H22.033C22.153 19.88 22.588 17.48 23.338 13.43L20.953 8.615C24.343 6.425 27.433 5.33 30.223 5.33C32.533 5.33 33.688 6.74 33.688 9.56C33.688 10.49 33.103 13.955 31.933 19.955C30.793 25.925 30.223 29.48 30.223 30.62C30.223 33.53 30.673 35.705 31.573 37.145C29.773 38.495 27.898 39.17 25.948 39.17C23.998 39.17 22.603 38.615 21.763 37.505C20.923 36.365 20.503 34.595 20.503 32.195ZM59.2579 14.42C60.9379 14.42 62.3779 15.095 63.5779 16.445C64.8079 17.795 65.4229 19.76 65.4229 22.34C65.4229 24.89 64.9729 27.26 64.0729 29.45C63.1729 31.61 61.9879 33.38 60.5179 34.76C59.0479 36.14 57.3829 37.22 55.5229 38C53.6629 38.75 51.7579 39.125 49.8079 39.125C45.8779 39.125 42.7729 38.045 40.4929 35.885C38.2129 33.725 37.0729 30.86 37.0729 27.29C37.0729 22.46 38.6179 18.545 41.7079 15.545C44.8279 12.515 48.7879 11 53.5879 11C54.6679 11 55.7479 11.12 56.8279 11.36C57.1579 12.35 57.3379 13.475 57.3679 14.735C57.9979 14.525 58.6279 14.42 59.2579 14.42ZM53.7229 20.675C53.7229 19.835 53.9179 18.89 54.3079 17.84C54.7279 16.79 55.3879 15.95 56.2879 15.32C52.3279 16.16 49.5979 17.765 48.0979 20.135C46.8079 22.175 46.1629 24.275 46.1629 26.435C46.1629 28.595 46.5979 30.335 47.4679 31.655C48.3679 32.945 49.5079 33.59 50.8879 33.59C53.9479 33.59 56.1079 31.595 57.3679 27.605C54.9379 26.105 53.7229 23.795 53.7229 20.675ZM98.4008 19.01L98.8508 19.235C102.061 13.745 105.991 11 110.641 11C114.271 11 116.086 12.815 116.086 16.445C116.086 18.005 115.636 20.645 114.736 24.365C113.866 28.085 113.431 30.89 113.431 32.78C113.431 34.67 113.746 36.05 114.376 36.92C112.786 38.39 111.106 39.125 109.336 39.125C105.886 39.125 104.161 37.265 104.161 33.545C104.161 32.165 104.611 29.825 105.511 26.525C106.411 23.225 106.861 21.08 106.861 20.09C106.861 18.74 106.351 18.065 105.331 18.065C104.491 18.065 103.546 18.44 102.496 19.19C101.476 19.91 100.486 20.9 99.5258 22.16C98.5958 23.39 97.8008 24.965 97.1408 26.885C96.5108 28.775 96.1958 30.71 96.1958 32.69C96.1958 34.64 96.5108 36.05 97.1408 36.92C95.5508 38.39 93.8708 39.125 92.1008 39.125C88.6508 39.125 86.9258 37.265 86.9258 33.545C86.9258 32.165 87.3758 29.825 88.2758 26.525C89.1758 23.225 89.6258 21.08 89.6258 20.09C89.6258 18.74 89.1158 18.065 88.0958 18.065C87.2558 18.065 86.3108 18.44 85.2608 19.19C84.2408 19.91 83.2508 20.9 82.2908 22.16C81.3608 23.39 80.5658 24.965 79.9058 26.885C79.2758 28.775 78.9608 30.71 78.9608 32.69C78.9608 34.64 79.2758 36.05 79.9058 36.92C78.3158 38.39 76.6358 39.125 74.8658 39.125C71.4158 39.125 69.6908 37.265 69.6908 33.545C69.6908 32.345 69.9908 30.02 70.5908 26.57C71.2208 23.12 71.8658 19.97 72.5258 17.12L70.1858 13.52C73.1558 11.84 75.9008 11 78.4208 11C80.9408 11 82.2008 12.14 82.2008 14.42C82.2008 15.92 81.8558 17.45 81.1658 19.01L81.6158 19.235C84.8258 13.745 88.7558 11 93.4058 11C95.0858 11 96.4058 11.42 97.3658 12.26C98.3558 13.1 98.8508 14.36 98.8508 16.04C98.8508 16.94 98.7008 17.93 98.4008 19.01ZM135.114 3.89C135.114 5.03 134.514 6.02 133.314 6.86C132.114 7.67 130.749 8.075 129.219 8.075C127.689 8.075 126.474 7.775 125.574 7.175C124.704 6.575 124.269 5.765 124.269 4.745C124.269 3.365 124.914 2.285 126.204 1.505C127.494 0.724999 128.859 0.334999 130.299 0.334999C131.739 0.334999 132.894 0.634999 133.764 1.235C134.664 1.835 135.114 2.72 135.114 3.89ZM126.339 39.125C124.479 39.125 123.129 38.66 122.289 37.73C121.449 36.8 121.029 35.39 121.029 33.5C121.029 31.58 121.989 26.465 123.909 18.155L121.389 14.375C125.139 12.125 128.094 11 130.254 11C131.484 11 132.354 11.27 132.864 11.81C133.374 12.32 133.629 13.16 133.629 14.33C133.629 14.78 133.074 17.42 131.964 22.25C130.854 27.08 130.299 30.53 130.299 32.6C130.299 34.67 130.764 36.11 131.694 36.92C130.014 38.39 128.229 39.125 126.339 39.125ZM150.446 39.125C146.336 39.125 143.156 38.06 140.906 35.93C138.686 33.8 137.576 30.92 137.576 27.29C137.576 22.46 139.226 18.545 142.526 15.545C145.856 12.515 150.026 11 155.036 11C157.826 11 159.941 11.63 161.381 12.89C162.821 14.12 163.541 15.755 163.541 17.795C163.541 20.585 162.176 22.91 159.446 24.77C156.746 26.6 152.561 27.53 146.891 27.56C146.981 29.48 147.416 30.995 148.196 32.105C148.976 33.185 149.951 33.725 151.121 33.725C152.291 33.725 153.296 33.335 154.136 32.555C155.006 31.775 155.441 30.5 155.441 28.73C159.821 28.73 162.011 29.765 162.011 31.835C162.011 33.605 160.931 35.27 158.771 36.83C156.611 38.36 153.836 39.125 150.446 39.125ZM154.271 16.265C152.741 16.265 151.331 17.03 150.041 18.56C148.781 20.09 147.866 21.89 147.296 23.96C150.296 23.72 152.546 23.045 154.046 21.935C155.576 20.795 156.341 19.595 156.341 18.335C156.341 17.735 156.146 17.24 155.756 16.85C155.396 16.46 154.901 16.265 154.271 16.265ZM181.956 16.985C180.846 17.315 179.961 17.795 179.301 18.425C178.641 19.025 178.056 19.895 177.546 21.035C182.616 21.785 186.186 22.865 188.256 24.275C190.326 25.685 191.361 27.695 191.361 30.305C191.361 31.955 190.896 33.395 189.966 34.625C189.036 35.825 187.866 36.74 186.456 37.37C183.696 38.54 180.981 39.125 178.311 39.125C170.721 39.125 166.926 37.49 166.926 34.22C166.926 32.57 167.661 30.92 169.131 29.27C169.881 30.32 171.006 31.22 172.506 31.97C174.036 32.72 175.521 33.095 176.961 33.095C179.451 33.095 180.951 32 181.461 29.81C176.901 29.27 173.601 28.25 171.561 26.75C169.521 25.25 168.501 23.135 168.501 20.405C168.501 18.245 169.206 16.43 170.616 14.96C172.056 13.49 173.826 12.47 175.926 11.9C178.056 11.3 180.441 11 183.081 11C185.751 11 187.941 11.51 189.651 12.53C191.391 13.52 192.261 14.735 192.261 16.175C192.261 17.615 191.751 18.725 190.731 19.505C189.741 20.285 188.646 20.675 187.446 20.675C186.276 20.675 185.196 20.36 184.206 19.73C183.246 19.1 182.496 18.185 181.956 16.985Z" fill="white"/>
</svg>
