<svg width="32" height="32" viewBox="0 0 32 32" fill="none" xmlns="http://www.w3.org/2000/svg">
<path fill-rule="evenodd" clip-rule="evenodd" d="M3.20215 28.5201V13.4397H5.3353V28.5201C5.3353 28.8277 5.44767 29.1228 5.6477 29.3404C5.84772 29.5579 6.11901 29.6801 6.40188 29.6801H25.6003C25.8831 29.6801 26.1544 29.5579 26.3544 29.3404C26.5545 29.1228 26.6668 28.8277 26.6668 28.5201V13.4397H28.8V28.5201C28.8 29.4431 28.4629 30.3282 27.8628 30.9809C27.2627 31.6335 26.4489 32.0002 25.6003 32.0002H6.40188C5.55326 32.0002 4.73939 31.6335 4.13933 30.9809C3.53926 30.3282 3.20215 29.4431 3.20215 28.5201ZM26.6668 2.9995V11.1197L22.4005 6.47958V2.9995C22.4005 2.69185 22.5129 2.39679 22.7129 2.17924C22.9129 1.96169 23.1842 1.83948 23.4671 1.83948H25.6003C25.8831 1.83948 26.1544 1.96169 26.3544 2.17924C26.5545 2.39679 26.6668 2.69185 26.6668 2.9995Z" fill="white"/>
<path fill-rule="evenodd" clip-rule="evenodd" d="M14.4919 0.67928C14.8919 0.244337 15.4344 0 16 0C16.5656 0 17.1081 0.244337 17.5081 0.67928L31.6872 16.0984C31.8875 16.3162 32 16.6116 32 16.9197C32 17.2277 31.8875 17.5231 31.6872 17.741C31.4869 17.9588 31.2153 18.0811 30.9321 18.0811C30.6488 18.0811 30.3772 17.9588 30.1769 17.741L16 2.31956L1.82306 17.741C1.62279 17.9588 1.35116 18.0811 1.06792 18.0811C0.784693 18.0811 0.513062 17.9588 0.312788 17.741C0.112513 17.5231 0 17.2277 0 16.9197C0 16.6116 0.112513 16.3162 0.312788 16.0984L14.4919 0.67928Z" fill="white"/>
</svg>
