<svg width="32" height="32" viewBox="0 0 32 32" fill="none" xmlns="http://www.w3.org/2000/svg">
<path fill-rule="evenodd" clip-rule="evenodd" d="M22.5 12C22.5 13.5913 21.8679 15.1174 20.7426 16.2426C19.6174 17.3679 18.0913 18 16.5 18C14.9087 18 13.3826 17.3679 12.2574 16.2426C11.1321 15.1174 10.5 13.5913 10.5 12C10.5 10.4087 11.1321 8.88258 12.2574 7.75736C13.3826 6.63214 14.9087 6 16.5 6C18.0913 6 19.6174 6.63214 20.7426 7.75736C21.8679 8.88258 22.5 10.4087 22.5 12V12ZM19.5 12C19.5 12.7956 19.1839 13.5587 18.6213 14.1213C18.0587 14.6839 17.2956 15 16.5 15C15.7044 15 14.9413 14.6839 14.3787 14.1213C13.8161 13.5587 13.5 12.7956 13.5 12C13.5 11.2044 13.8161 10.4413 14.3787 9.87868C14.9413 9.31607 15.7044 9 16.5 9C17.2956 9 18.0587 9.31607 18.6213 9.87868C19.1839 10.4413 19.5 11.2044 19.5 12V12Z" fill="#194A50"/>
<path fill-rule="evenodd" clip-rule="evenodd" d="M16 0C7.16364 0 0 7.16364 0 16C0 24.8364 7.16364 32 16 32C24.8364 32 32 24.8364 32 16C32 7.16364 24.8364 0 16 0ZM2.90909 16C2.90909 19.04 3.94618 21.8385 5.68436 24.0611C6.90506 22.458 8.47985 21.1589 10.2857 20.2652C12.0916 19.3715 14.0796 18.9073 16.0945 18.9091C18.0834 18.9072 20.0464 19.3593 21.8341 20.231C23.6217 21.1026 25.1869 22.3708 26.4102 23.9389C27.6705 22.286 28.519 20.3567 28.8857 18.3107C29.2523 16.2647 29.1264 14.1608 28.5185 12.1731C27.9106 10.1854 26.8381 8.37098 25.3898 6.88005C23.9415 5.38913 22.1589 4.26452 20.1896 3.59929C18.2204 2.93405 16.121 2.7473 14.0653 3.05451C12.0095 3.36171 10.0564 4.15402 8.36766 5.3659C6.6789 6.57777 5.303 8.17436 4.35379 10.0236C3.40458 11.8728 2.90935 13.9214 2.90909 16V16ZM16 29.0909C12.9948 29.0954 10.0804 28.0616 7.74982 26.1644C8.6879 24.8214 9.93649 23.725 11.3894 22.9683C12.8423 22.2116 14.4564 21.817 16.0945 21.8182C17.7122 21.8169 19.3069 22.2016 20.7461 22.9403C22.1853 23.6789 23.4274 24.7503 24.3695 26.0655C22.0208 28.0243 19.0583 29.0952 16 29.0909V29.0909Z" fill="#194A50"/>
</svg>
